<svg version="1.1" id="Layer_1" xmlns="http://www.w3.org/2000/svg" xmlns:xlink="http://www.w3.org/1999/xlink" x="0px" y="0px"
	 width="48px" height="48px" viewBox="-32.721 -13.25 48 48" enable-background="new -32.721 -13.25 48 48" xml:space="preserve">
<title>arrow</title>
<g id="Layer_2">
	<g id="Layer_1-2">
		<path fill="#FFFFFF" d="M-8.723,28.37c-0.612,0.019-1.201-0.228-1.623-0.667c-0.426-0.432-0.662-1.019-0.651-1.627V1.935
			l-9.171,9.119c-0.424,0.451-1.015,0.703-1.636,0.695c-0.61,0.013-1.191-0.244-1.596-0.695c-0.448-0.406-0.702-0.984-0.697-1.59
			c0-0.622,0.254-1.217,0.697-1.656L-8.723-6.87L5.958,7.808c0.438,0.439,0.686,1.031,0.697,1.651
			c-0.002,0.604-0.257,1.183-0.697,1.595c-0.432,0.449-1.024,0.703-1.646,0.698c-0.613,0.008-1.199-0.247-1.608-0.698l-9.113-9.119
			v24.142c0.008,0.615-0.238,1.203-0.68,1.627C-7.518,28.141-8.11,28.381-8.723,28.37z"/>
	</g>
</g>
</svg>
