<svg width="20" height="20" fill="rgb(230,0,40)" version="1.1" id="Layer_1" xmlns="http://www.w3.org/2000/svg" xmlns:xlink="http://www.w3.org/1999/xlink" x="0px" y="0px"
	 width="19.625px" height="21.5px" viewBox="15.5 -0.875 19.625 21.5" enable-background="new 15.5 -0.875 19.625 21.5"
	 xml:space="preserve">
<title>arrow</title>
<g id="Layer_2">
	<g id="Layer_1-2">
		<path fill="#FFFFFF" d="M25.313-0.125c0.348-0.009,0.682,0.129,0.922,0.38c0.242,0.244,0.375,0.577,0.369,0.922v13.702
			l5.205-5.175c0.24-0.257,0.576-0.4,0.928-0.396c0.346-0.007,0.676,0.138,0.906,0.396c0.254,0.229,0.398,0.558,0.395,0.9
			c0,0.354-0.143,0.692-0.395,0.941l-8.33,8.33l-8.33-8.33c-0.249-0.249-0.39-0.585-0.396-0.937
			c0.002-0.343,0.146-0.671,0.396-0.905c0.243-0.255,0.58-0.398,0.933-0.396c0.347-0.005,0.679,0.139,0.911,0.396L24,14.879V1.177
			c-0.005-0.348,0.135-0.682,0.386-0.922C24.629,0.007,24.965-0.13,25.313-0.125z"/>
	</g>
</g>
</svg>
