<svg height="48" width="48" fill="rgb(230,0,40)" xmlns="http://www.w3.org/2000/svg" viewBox="55 0 100 50"><title>bne</title><path d="M91.14014,9.41992a8.32756,8.32756,0,0,0-1.71-3.21,11.092,11.092,0,0,0-2.12988-1.89014,8.80908,8.80908,0,0,0-3.36035-1.3501,19.78537,19.78537,0,0,0-3.12012-.27c-.44043,0-1,.021-1.67969.06006a10.89882,10.89882,0,0,0-2.21973.39014,13.96194,13.96194,0,0,0-2.52051.98975,9.1878,9.1878,0,0,0-2.51953,1.92041,10.60679,10.60679,0,0,0-1.77051,2.36963,20.18857,20.18857,0,0,0-2.12988,5.79A26.82408,26.82408,0,0,0,67.56006,17.04H87.48l-.89941,1.98H67.38037q-.06152.78-.08984,1.52979c-.02148.50049-.03027.99023-.03027,1.47021s.00879.95068.03027,1.40967q.0293.69067.08984,1.3501H84.35986l-.89941,1.98H67.61963a26.28659,26.28659,0,0,0,1.02051,4.91992,16.80124,16.80124,0,0,0,2.21973,4.68018A11.61744,11.61744,0,0,0,73.43994,39.21,10.89058,10.89058,0,0,0,76.17041,40.77a11.04265,11.04265,0,0,0,2.60938.65967,19.32475,19.32475,0,0,0,2.28027.15039,18.21947,18.21947,0,0,0,2.87988-.24023,13.86426,13.86426,0,0,0,2.87988-.77979A14.25656,14.25656,0,0,0,89.34033,39.21a12.947,12.947,0,0,0,2.58008-2.31006v2.75977a14.44859,14.44859,0,0,1-1.83008,1.43994,10.77117,10.77117,0,0,1-2.31055,1.14014,15.81254,15.81254,0,0,1-3.41992.98975,20.63253,20.63253,0,0,1-3.59961.33008,15.09162,15.09162,0,0,1-6.83984-1.49951,13.06835,13.06835,0,0,1-4.98047-4.38037A18.6466,18.6466,0,0,1,66.39014,32.46a26.40016,26.40016,0,0,1-1.16992-5.7002H61.31982l.90039-1.98H65.1001a27.667,27.667,0,0,1,0-5.75977H61.31982l.90039-1.98h3a24.59054,24.59054,0,0,1,1.55957-6.87012,17.43216,17.43216,0,0,1,1.68066-3.27,13.25639,13.25639,0,0,1,2.39941-2.76025A12.97705,12.97705,0,0,1,73.6499,2.25a13.92837,13.92837,0,0,1,2.73047-1.02,15.042,15.042,0,0,1,2.46-.41992Q79.97852.72,80.81982.71973a23.4324,23.4324,0,0,1,3.83984.33008A10.13674,10.13674,0,0,1,88.43994,2.52,11.24351,11.24351,0,0,1,90.6001,4.29a8.9238,8.9238,0,0,1,1.7998,2.84961Z"/></svg>