<svg version="1.1" id="Layer_1" xmlns="http://www.w3.org/2000/svg" xmlns:xlink="http://www.w3.org/1999/xlink" x="0px" y="0px"
	 width="60px" height="60px" viewBox="0 0 48 48" enable-background="new 0 0 48 48" xml:space="preserve">
<title>bne</title>
<g>
	<path fill="#E60028" d="M41.345,17.893c-0.156-0.567-0.438-1.094-0.82-1.54c-0.301-0.346-0.645-0.65-1.023-0.907
		c-0.486-0.326-1.035-0.547-1.613-0.648c-0.494-0.083-0.994-0.126-1.496-0.13c-0.213,0-0.48,0.011-0.807,0.029
		c-0.361,0.025-0.719,0.088-1.066,0.188c-0.418,0.118-0.822,0.277-1.209,0.475c-0.453,0.235-0.863,0.547-1.211,0.922
		c-0.334,0.338-0.621,0.721-0.85,1.138c-0.48,0.868-0.826,1.806-1.021,2.779c-0.092,0.447-0.158,0.899-0.201,1.354h9.561
		l-0.432,0.951h-9.217c-0.02,0.249-0.033,0.494-0.043,0.734c-0.01,0.239-0.014,0.475-0.014,0.705s0.004,0.456,0.014,0.678
		c0.01,0.221,0.025,0.438,0.043,0.648h8.152l-0.432,0.949h-7.605c0.088,0.801,0.252,1.592,0.49,2.361
		c0.236,0.801,0.596,1.559,1.066,2.248c0.334,0.521,0.752,0.982,1.238,1.367c0.398,0.313,0.84,0.564,1.311,0.748
		c0.402,0.156,0.824,0.264,1.252,0.316c0.363,0.047,0.729,0.07,1.096,0.074c0.463-0.002,0.924-0.041,1.381-0.117
		c0.475-0.074,0.938-0.199,1.383-0.373c0.424-0.176,0.83-0.393,1.211-0.648c0.459-0.313,0.877-0.686,1.238-1.109v1.324
		c-0.273,0.254-0.568,0.486-0.879,0.691c-0.346,0.227-0.719,0.41-1.109,0.549c-0.527,0.219-1.078,0.379-1.641,0.475
		c-0.57,0.104-1.148,0.156-1.729,0.158c-1.137,0.021-2.26-0.225-3.283-0.719c-0.965-0.484-1.789-1.209-2.391-2.104
		c-0.537-0.766-0.949-1.611-1.225-2.506c-0.287-0.889-0.475-1.807-0.561-2.736H27.03l0.432-0.949h1.383
		c-0.096-0.921-0.096-1.847,0-2.766H27.03l0.432-0.951h1.441c0.09-1.129,0.342-2.24,0.748-3.298c0.213-0.55,0.482-1.076,0.807-1.569
		c0.32-0.493,0.709-0.938,1.152-1.325c0.404-0.359,0.855-0.664,1.34-0.907c0.418-0.208,0.857-0.372,1.311-0.489
		c0.387-0.1,0.781-0.167,1.18-0.201c0.365-0.029,0.682-0.044,0.951-0.044c0.617,0.002,1.232,0.056,1.842,0.158
		c0.646,0.111,1.264,0.351,1.814,0.706c0.381,0.239,0.729,0.524,1.037,0.85c0.373,0.396,0.666,0.861,0.865,1.368L41.345,17.893z"/>
	<polygon fill="#E60028" points="23.907,13.718 15.605,32.742 7.331,13.718 6.05,13.718 6.05,34.283 7.053,34.283 7.053,15.652 
		15.197,34.208 15.23,34.283 15.994,34.283 24.213,15.554 24.213,34.283 25.216,34.283 25.216,13.718 	"/>
</g>
</svg>
