<svg width="48" height="48" fill="#fff" id="icon-link" viewBox="0 0 34 32" width="100%" height="100%">
<title>link</title>
<path d="M18.165 13.717c-0.175 0.174-0.283 0.414-0.283 0.68s0.108 0.506 0.282 0.68c0.723 0.724 1.17 1.723 1.17 2.826s-0.447 2.103-1.17 2.826l-8.171 8.185c-0.724 0.723-1.723 1.17-2.826 1.17s-2.103-0.447-2.826-1.17l-1.23-1.23c-0.723-0.724-1.17-1.723-1.17-2.826s0.447-2.103 1.17-2.826l8.185-8.185c0.159-0.171 0.256-0.401 0.256-0.654 0-0.531-0.431-0.962-0.962-0.962-0.253 0-0.483 0.097-0.654 0.257l-8.199 8.196c-1.072 1.070-1.736 2.55-1.736 4.185s0.663 3.114 1.736 4.185l1.23 1.23c1.072 1.068 2.551 1.729 4.185 1.729s3.113-0.66 4.185-1.729l8.185-8.185c1.068-1.072 1.729-2.551 1.729-4.185s-0.66-3.113-1.729-4.185c-0.174-0.174-0.414-0.282-0.68-0.282s-0.506 0.108-0.68 0.283l-0 0z"></path>
<path d="M32.637 2.962l-1.23-1.23c-1.072-1.068-2.551-1.729-4.185-1.729s-3.113 0.66-4.185 1.729l-8.185 8.185c-1.068 1.072-1.729 2.551-1.729 4.185s0.661 3.113 1.729 4.185c0.171 0.159 0.401 0.256 0.654 0.256 0.531 0 0.962-0.431 0.962-0.962 0-0.253-0.097-0.483-0.257-0.654-0.722-0.723-1.169-1.722-1.169-2.826s0.447-2.103 1.17-2.826l8.185-8.185c0.724-0.723 1.723-1.17 2.826-1.17s2.103 0.447 2.826 1.17l1.23 1.23c0.723 0.724 1.17 1.723 1.17 2.826s-0.447 2.103-1.17 2.826l-8.185 8.185c-0.173 0.174-0.28 0.415-0.28 0.68 0 0.53 0.428 0.961 0.957 0.965 0.001 0 0.001 0 0.002 0 0.265 0 0.505-0.11 0.675-0.288l8.185-8.185c1.070-1.071 1.732-2.551 1.732-4.185s-0.662-3.114-1.732-4.185l0 0z"></path>
</svg>